<svg id="Full-Logo-White" xmlns="http://www.w3.org/2000/svg" width="725.253" height="707.297" viewBox="0 0 725.253 707.297">
  <g id="Group_6" data-name="Group 6">
    <g id="Group_4" data-name="Group 4">
      <path id="Path_4" data-name="Path 4" d="M112.216,604.244a52.245,52.245,0,0,1-18.375-3.131,43.04,43.04,0,0,1-14.549-8.868,40.678,40.678,0,0,1-9.564-13.506,43.738,43.738,0,0,1,0-33.91,40.859,40.859,0,0,1,9.564-13.448,43.032,43.032,0,0,1,14.549-8.869,54.991,54.991,0,0,1,36.576,0,43.2,43.2,0,0,1,14.492,8.869,40.943,40.943,0,0,1,9.564,13.448,43.738,43.738,0,0,1,0,33.91,40.778,40.778,0,0,1-9.564,13.506,43.2,43.2,0,0,1-14.492,8.868A51.437,51.437,0,0,1,112.216,604.244ZM112.1,582.1a18.194,18.194,0,0,0,7.129-1.391,17.145,17.145,0,0,0,5.8-4,18.224,18.224,0,0,0,3.883-6.376,26.758,26.758,0,0,0,0-17.042,18.233,18.233,0,0,0-3.883-6.376,17.145,17.145,0,0,0-5.8-4,18.956,18.956,0,0,0-14.26,0,17.146,17.146,0,0,0-5.8,4,18.233,18.233,0,0,0-3.883,6.376,26.795,26.795,0,0,0,0,17.042,18.224,18.224,0,0,0,3.883,6.376,17.146,17.146,0,0,0,5.8,4A18.2,18.2,0,0,0,112.1,582.1Z" fill="#fff"/>
      <path id="Path_5" data-name="Path 5" d="M194.179,602.389,168.21,521.237h28.172l20.984,68.516H203.221l22.26-68.516h25.156l20.752,68.516H257.825l21.912-68.516h25.969l-25.969,81.152H250.4l-16.926-56.11h7.885l-17.854,56.11H194.178Z" fill="#fff"/>
      <path id="Path_6" data-name="Path 6" d="M320.429,602.389V521.237h22.49l41.271,49.388H373.756V521.237H400.42v81.152H377.93L336.659,553h10.434v49.387Z" fill="#fff"/>
      <path id="Path_7" data-name="Path 7" d="M422.332,602.389V521.237H488.3v20.637h-39.07v39.88H489.8V602.39H422.332Zm25.041-31.3V551.379h36.17v19.708Z" fill="#fff"/>
      <path id="Path_8" data-name="Path 8" d="M509.046,602.389V521.237h37.91q18.661,0,28.4,8.231t9.738,22.375a27.379,27.379,0,0,1-17.332,26.548,49.127,49.127,0,0,1-19.65,3.595H524.233L536.4,570.74v31.649H509.046Zm27.36-28.635-12.172-12.4h22.143q5.677,0,8.4-2.551a10.241,10.241,0,0,0,0-13.912q-2.724-2.548-8.4-2.551H524.234l12.172-12.4Zm21.217,28.635-19.941-29.562h28.984l20.172,29.562Z" fill="#fff"/>
      <path id="Path_9" data-name="Path 9" d="M634.367,604.244a82.849,82.849,0,0,1-19.707-2.319,56,56,0,0,1-15.652-6.028l8.812-19.94a56.292,56.292,0,0,0,12.926,5.392,50.489,50.489,0,0,0,13.854,2.028,28.975,28.975,0,0,0,6.2-.521,7.124,7.124,0,0,0,3.3-1.507,3.151,3.151,0,0,0,1.043-2.377,3.868,3.868,0,0,0-2.434-3.478,26.054,26.054,0,0,0-6.434-2.146q-4-.868-8.754-1.854a81.33,81.33,0,0,1-9.564-2.608,37.224,37.224,0,0,1-8.811-4.289,20.063,20.063,0,0,1-6.434-7.015,21.938,21.938,0,0,1-2.436-10.839,23.838,23.838,0,0,1,4.232-13.738q4.23-6.2,12.637-9.912t20.926-3.71a76.218,76.218,0,0,1,16.23,1.739,51.313,51.313,0,0,1,14.375,5.333l-8.23,19.824a62.167,62.167,0,0,0-11.652-4.521,42.266,42.266,0,0,0-10.955-1.507,22.541,22.541,0,0,0-6.26.7,6.839,6.839,0,0,0-3.3,1.854,3.847,3.847,0,0,0-.986,2.551q0,2.088,2.436,3.3a26.321,26.321,0,0,0,6.434,2.029q4,.812,8.811,1.739a71.675,71.675,0,0,1,9.564,2.55,37.684,37.684,0,0,1,8.754,4.29,20.236,20.236,0,0,1,6.434,6.956,21.347,21.347,0,0,1,2.436,10.665,23.664,23.664,0,0,1-4.232,13.622q-4.233,6.2-12.578,9.97t-20.984,3.769Z" fill="#fff"/>
      <path id="Path_10" data-name="Path 10" d="M171.457,707.294a51.5,51.5,0,0,1-18.027-3.072,42.386,42.386,0,0,1-14.375-8.753,39.814,39.814,0,0,1-9.449-13.447,45.477,45.477,0,0,1,0-34.316,39.872,39.872,0,0,1,9.449-13.448A42.465,42.465,0,0,1,153.43,625.5a51.5,51.5,0,0,1,18.027-3.071,50.8,50.8,0,0,1,21.158,4.173,39.253,39.253,0,0,1,15.244,12.058l-17.273,15.418a28.038,28.038,0,0,0-7.941-7.014,19.344,19.344,0,0,0-9.795-2.492,20.737,20.737,0,0,0-7.768,1.392,16.392,16.392,0,0,0-5.971,4.057,18.855,18.855,0,0,0-3.885,6.435,26.089,26.089,0,0,0,0,16.81,18.822,18.822,0,0,0,3.885,6.434,16.361,16.361,0,0,0,5.971,4.058,20.731,20.731,0,0,0,7.768,1.392,19.328,19.328,0,0,0,9.795-2.493,27.977,27.977,0,0,0,7.941-7.014l17.273,15.419a40.2,40.2,0,0,1-15.244,12,50.212,50.212,0,0,1-21.158,4.231Z" fill="#fff"/>
      <path id="Path_11" data-name="Path 11" d="M223.626,705.439V624.287h27.359v81.152Z" fill="#fff"/>
      <path id="Path_12" data-name="Path 12" d="M272.9,705.439V624.287h37.91q18.662,0,28.4,8.231t9.738,22.374a27.382,27.382,0,0,1-17.332,26.549,49.144,49.144,0,0,1-19.65,3.594H288.083l12.172-11.245v31.649ZM300.255,676.8l-12.172-12.4h22.143q5.678,0,8.4-2.551a10.239,10.239,0,0,0,0-13.911q-2.724-2.548-8.4-2.551H288.083l12.172-12.4V676.8Zm21.217,28.635-19.941-29.562h28.984l20.172,29.562Z" fill="#fff"/>
      <path id="Path_13" data-name="Path 13" d="M409.927,707.294a51.5,51.5,0,0,1-18.027-3.072,42.348,42.348,0,0,1-14.375-8.753,39.759,39.759,0,0,1-9.449-13.447,45.477,45.477,0,0,1,0-34.316,39.816,39.816,0,0,1,9.449-13.448A42.427,42.427,0,0,1,391.9,625.5a51.5,51.5,0,0,1,18.027-3.071,50.793,50.793,0,0,1,21.156,4.173,39.252,39.252,0,0,1,15.246,12.058l-17.273,15.418a28.038,28.038,0,0,0-7.941-7.014,19.347,19.347,0,0,0-9.8-2.492,20.744,20.744,0,0,0-7.768,1.392,16.409,16.409,0,0,0-5.971,4.057,18.883,18.883,0,0,0-3.883,6.435,26.089,26.089,0,0,0,0,16.81,18.85,18.85,0,0,0,3.883,6.434,16.378,16.378,0,0,0,5.971,4.058,20.738,20.738,0,0,0,7.768,1.392,19.33,19.33,0,0,0,9.8-2.493,27.976,27.976,0,0,0,7.941-7.014l17.273,15.419a40.205,40.205,0,0,1-15.246,12,50.205,50.205,0,0,1-21.156,4.231Z" fill="#fff"/>
      <path id="Path_14" data-name="Path 14" d="M462.1,705.439V624.287h27.359v59.937h36.635V705.44H462.1Z" fill="#fff"/>
      <path id="Path_15" data-name="Path 15" d="M542.32,705.439V624.287h65.965v20.636h-39.07V684.8h40.576V705.44H542.32Zm25.041-31.3V654.43h36.17v19.708Z" fill="#fff"/>
    </g>
    <g id="Group_5" data-name="Group 5">
      <path id="Path_16" data-name="Path 16" d="M692.856,539.144V527.2h-4.73v-3.454H701.92V527.2h-4.708v11.946h-4.355Z" fill="#fff"/>
      <path id="Path_17" data-name="Path 17" d="M705.769,539.144v-15.4h3.587l6.357,10.472h-1.892l6.226-10.472h3.586l.022,15.4h-4l-.044-9.306h.682l-4.642,7.788H713.71l-4.773-7.788h.836v9.306h-4.005Z" fill="#fff"/>
    </g>
    <path id="Path_18" data-name="Path 18" d="M619.919,278.731a88.808,88.808,0,1,1,4.7-92.117L725.253,85.976a232.7,232.7,0,0,0-16.972-18.955A228.825,228.825,0,0,0,384.673,390.629a228.824,228.824,0,0,0,323.608,0q5.919-5.919,11.346-12.19l-99.708-99.708Z" fill="#fff"/>
    <path id="Path_19" data-name="Path 19" d="M327.385,306.474a262.336,262.336,0,0,0,59.08,85.792c.417.395.847.794,1.268,1.191.969-.937,1.941-1.871,2.9-2.827A228.826,228.826,0,0,0,67.021,67.021a228.826,228.826,0,0,0,161.8,390.63,227.1,227.1,0,0,0,147.116-53.557C353.431,375.172,336.5,341.674,327.385,306.474Zm-98.56,11.177a88.825,88.825,0,1,1,88.826-88.826,88.926,88.926,0,0,1-88.826,88.826Z" fill="#fff"/>
  </g>
</svg>
