<svg xmlns="http://www.w3.org/2000/svg" width="737.175" height="737.174" viewBox="0 0 737.175 737.174">
  <g id="App-Icon-White" transform="translate(0 0)">
    <g id="Group_3" data-name="Group 3">
      <path id="Subtraction_1" data-name="Subtraction 1" d="M506.3,972.969H56.87a144.94,144.94,0,0,1-28.995-2.923A143.089,143.089,0,0,1-23.569,948.4a144.664,144.664,0,0,1-38.86-38.86A143.88,143.88,0,0,1-75.694,885.1a143.141,143.141,0,0,1-8.383-27.006A144.94,144.94,0,0,1-87,829.1V379.665a144.941,144.941,0,0,1,2.923-28.995,143.142,143.142,0,0,1,8.383-27.006,143.885,143.885,0,0,1,13.265-24.438,144.663,144.663,0,0,1,38.86-38.86A143.308,143.308,0,0,1,56.87,235.795H506.3a144.937,144.937,0,0,1,28.995,2.923,143.079,143.079,0,0,1,51.444,21.648,144.289,144.289,0,0,1,52.125,63.3,143.138,143.138,0,0,1,8.383,27.006,144.938,144.938,0,0,1,2.923,28.995V829.1a144.936,144.936,0,0,1-2.923,28.995A143.085,143.085,0,0,1,625.6,909.538a144.288,144.288,0,0,1-63.3,52.125,143.145,143.145,0,0,1-27.006,8.383A144.939,144.939,0,0,1,506.3,972.969ZM255.845,661.125A191.641,191.641,0,0,0,299,723.794c3.088,2.933,7.16,6.718,11.278,9.985l4.647,3.79-.04.044a165.448,165.448,0,0,0,47.49,25.236A167.614,167.614,0,0,0,534.126,722.6c2.843-2.842,5.632-5.839,8.29-8.906l-72.848-72.848a65.407,65.407,0,0,1-22.859,20.648,64.93,64.93,0,1,1,2.86-112.579A65.363,65.363,0,0,1,473,573.542l73.527-73.527a170.768,170.768,0,0,0-12.4-13.849A166.084,166.084,0,0,0,415.91,437.2a169.354,169.354,0,0,0-32.138,3.069,165.209,165.209,0,0,0-58.7,23.7,169.043,169.043,0,0,0-25.206,20.071,169.027,169.027,0,0,0-25.206-20.071,165.208,165.208,0,0,0-58.7-23.7A169.354,169.354,0,0,0,183.83,437.2,167.266,167.266,0,1,0,291.312,732.433a203.324,203.324,0,0,1-21.407-33.94,190.958,190.958,0,0,1-14.062-37.367Zm-72.013,8.153a64.9,64.9,0,1,1,64.9-64.9A64.971,64.971,0,0,1,183.831,669.279Z" transform="translate(87 -235.795)" fill="#fff"/>
    </g>
  </g>
</svg>
